<?xml version="1.0" encoding="UTF-8"?>
<svg width="395px" height="195px" viewBox="0 0 395 195" version="1.1" xmlns="http://www.w3.org/2000/svg" xmlns:xlink="http://www.w3.org/1999/xlink">
    <!-- Generator: Sketch 64 (93537) - https://sketch.com -->
    <title>Group 2</title>
    <desc>Created with Sketch.</desc>
    <g id="Page-1" stroke="none" stroke-width="1" fill="none" fill-rule="evenodd">
        <g id="Artboard" transform="translate(-136.000000, -234.000000)">
            <g id="Group-2" transform="translate(136.000000, 234.000000)">
                <path d="M24.9082031,86.9580078 L24.9082031,63.1923828 L44.5986328,32 L38.6572266,32 L22.3945312,58.0888672 L22.2041016,58.0888672 L5.94140625,32 L0,32 L19.6904297,63.1923828 L19.6904297,86.9580078 L24.9082031,86.9580078 Z M58.2612942,87.6054688 C69.0396145,87.6054688 76.3140285,79.7216797 76.3140285,67.1533203 C76.3140285,54.546875 69.0396145,46.7011719 58.2612942,46.7011719 C47.5210598,46.7011719 40.2085598,54.546875 40.2085598,67.1533203 C40.2085598,79.7216797 47.4829739,87.6054688 58.2612942,87.6054688 Z M58.2612942,83.1494141 C50.4917629,83.1494141 45.3501614,77.2080078 45.3501614,67.1533203 C45.3501614,57.0986328 50.4917629,51.1572266 58.2612942,51.1572266 C66.0308254,51.1572266 71.2105129,57.0986328 71.2105129,67.1533203 C71.2105129,77.2080078 66.0308254,83.1494141 58.2612942,83.1494141 Z M96.5655571,87.6054688 C102.849737,87.6054688 107.610479,84.4824219 109.705206,79.6074219 L109.819463,79.6074219 L109.819463,86.9580078 L114.580206,86.9580078 L114.580206,47.3486328 L109.552862,47.3486328 L109.552862,70.8476562 C109.552862,78.2744141 104.906377,83.1113281 98.0128227,83.1113281 C91.3858696,83.1113281 87.6534477,79.2265625 87.6534477,72.21875 L87.6534477,47.3486328 L82.588018,47.3486328 L82.588018,73.0947266 C82.588018,82.0068359 87.9581352,87.6054688 96.5655571,87.6054688 Z M128.090523,86.9580078 L128.090523,62.2783203 C128.090523,55.8798828 131.670601,51.5 137.30732,51.5 C139.021187,51.5 140.430367,51.7666016 141.077828,52.0712891 L141.077828,47.1201172 C140.468453,46.9677734 139.287789,46.7011719 137.954781,46.7011719 C133.079781,46.7011719 129.385445,49.5576172 127.938179,54.3945312 L127.823922,54.3945312 L127.823922,47.3486328 L123.063179,47.3486328 L123.063179,86.9580078 L128.090523,86.9580078 Z M178.191236,101.621094 C188.779127,101.621094 195.520338,95.5273438 195.520338,86.3105469 L195.520338,47.3486328 L190.72151,47.3486328 L190.72151,55.7275391 L190.607252,55.7275391 C188.28401,50.3193359 183.21858,46.7011719 176.896315,46.7011719 C166.765455,46.7011719 160.06233,54.7373047 160.06233,67.0390625 C160.06233,79.3027344 166.765455,87.3388672 176.782057,87.3388672 C183.104322,87.3388672 188.207838,83.6445312 190.340651,78.5410156 L190.454908,78.5410156 L190.454908,86.5009766 C190.454908,92.9755859 185.84651,97.2792969 178.419752,97.2792969 C172.668776,97.2792969 168.441236,94.4990234 167.146315,90.6142578 L161.928541,90.6142578 C163.033033,96.8603516 169.545729,101.621094 178.191236,101.621094 Z M177.696119,82.8828125 C170.231276,82.8828125 165.242018,76.6367188 165.242018,67.0771484 C165.242018,57.4414062 170.231276,51.1572266 177.696119,51.1572266 C185.313307,51.1572266 190.454908,57.5556641 190.454908,67.0390625 C190.454908,76.5224609 185.313307,82.8828125 177.696119,82.8828125 Z M215.733781,87.6054688 C221.637101,87.6054688 227.045304,84.3300781 229.254288,79.4169922 L229.368546,79.4169922 L229.368546,86.9580078 L234.167374,86.9580078 L234.167374,59.8408203 C234.167374,51.7666016 228.49257,46.7011719 219.466202,46.7011719 C210.439835,46.7011719 204.612687,51.7285156 204.041398,58.8125 L208.916398,58.8125 C209.792374,54.0136719 213.524796,51.1572266 219.351945,51.1572266 C225.521867,51.1572266 229.140031,54.5849609 229.140031,60.2978516 L229.140031,63.7255859 L216.800187,64.4873047 C207.659562,65.0966797 202.594132,69.2099609 202.594132,75.9892578 C202.594132,82.9208984 207.926163,87.6054688 215.733781,87.6054688 Z M216.762101,83.2636719 C211.391984,83.2636719 207.697648,80.2929688 207.697648,75.9892578 C207.697648,71.609375 211.163468,68.9052734 217.409562,68.4863281 L229.140031,67.6865234 L229.140031,72.0664062 C229.140031,78.3505859 223.693742,83.2636719 216.762101,83.2636719 Z M247.449176,86.9580078 L247.449176,62.2783203 C247.449176,55.8798828 251.029254,51.5 256.665973,51.5 C258.37984,51.5 259.78902,51.7666016 260.436481,52.0712891 L260.436481,47.1201172 C259.827106,46.9677734 258.646442,46.7011719 257.313434,46.7011719 C252.438434,46.7011719 248.744098,49.5576172 247.296833,54.3945312 L247.182575,54.3945312 L247.182575,47.3486328 L242.421833,47.3486328 L242.421833,86.9580078 L247.449176,86.9580078 Z M278.364767,87.6054688 C284.763205,87.6054688 289.828635,83.9111328 292.075705,78.5791016 L292.189963,78.5791016 L292.189963,86.9580078 L296.988791,86.9580078 L296.988791,32 L291.923361,32 L291.923361,55.4990234 L291.809103,55.4990234 C289.714377,50.3574219 284.648947,46.7011719 278.25051,46.7011719 C268.31008,46.7011719 261.416525,54.8134766 261.416525,67.1533203 C261.416525,79.4550781 268.348166,87.6054688 278.364767,87.6054688 Z M279.240744,83.1494141 C271.623556,83.1494141 266.596213,76.8271484 266.596213,67.1533203 C266.596213,57.4794922 271.623556,51.1572266 279.240744,51.1572266 C286.78176,51.1572266 291.961447,57.59375 291.961447,67.1533203 C291.961447,76.7509766 286.78176,83.1494141 279.240744,83.1494141 Z M321.848718,87.6054688 C330.570397,87.6054688 337.006921,82.578125 338.187585,75.7226562 L333.198327,75.7226562 C332.093835,80.0644531 327.942468,83.1875 321.962976,83.1875 C314.079187,83.1875 309.013757,77.6269531 309.013757,68.6767578 L309.013757,68.3720703 L338.682702,68.3720703 L338.682702,66.2392578 C338.682702,54.4326172 332.055749,46.7011719 321.54403,46.7011719 C310.803796,46.7011719 303.834069,54.9658203 303.834069,67.2675781 C303.834069,79.8359375 310.727624,87.6054688 321.848718,87.6054688 Z M333.503015,64.3730469 L309.051843,64.3730469 C309.470788,56.5654297 314.383874,51.1191406 321.467858,51.1191406 C328.628015,51.1191406 333.388757,56.5654297 333.503015,64.3730469 Z M350.250637,86.9580078 L350.250637,63.4970703 C350.250637,56.1464844 354.859035,51.1953125 361.714504,51.1953125 C368.341457,51.1953125 372.150051,55.15625 372.150051,62.0878906 L372.150051,86.9580078 L377.177395,86.9580078 L377.177395,61.2880859 C377.177395,52.2998047 371.845364,46.7011719 363.16177,46.7011719 C356.763332,46.7011719 352.116848,49.8623047 350.098293,54.6611328 L349.984035,54.6611328 L349.984035,47.3486328 L345.223293,47.3486328 L345.223293,86.9580078 L350.250637,86.9580078 Z M390.840056,55.0800781 C392.820525,55.0800781 394.382048,53.5185547 394.382048,51.5380859 C394.382048,49.5195312 392.820525,47.9580078 390.840056,47.9580078 C388.859587,47.9580078 387.259978,49.5195312 387.259978,51.5380859 C387.259978,53.5185547 388.859587,55.0800781 390.840056,55.0800781 Z M390.840056,87.3007812 C392.820525,87.3007812 394.382048,85.7392578 394.382048,83.7587891 C394.382048,81.7402344 392.820525,80.1787109 390.840056,80.1787109 C388.859587,80.1787109 387.259978,81.7402344 387.259978,83.7587891 C387.259978,85.7392578 388.859587,87.3007812 390.840056,87.3007812 Z" id="Yourgarden:" fill="#000000" fill-rule="nonzero"></path>
                <g id="Group"></g>
                <rect id="Rectangle" fill="#00B078" x="0" y="0" width="142.2" height="18" rx="9"></rect>
                <path d="M11.8087891,11.6675781 L12.2201172,9.62148437 L13.7441406,9.62148437 L13.3328125,11.6675781 L14.3505859,11.6675781 L14.7619141,9.62148437 L16.0802734,9.62148437 L16.2701172,8.61953125 L14.9623047,8.61953125 L15.2892578,7.01640625 L16.5707031,7.01640625 L16.7605469,6.025 L15.4896484,6.025 L15.8904297,4.05800781 L14.8726563,4.05800781 L14.471875,6.025 L12.953125,6.025 L13.3433594,4.05800781 L12.3308594,4.05800781 L11.9248047,6.025 L10.675,6.025 L10.4798828,7.01640625 L11.7296875,7.01640625 L11.4080078,8.61953125 L10.1898437,8.61953125 L10,9.62148437 L11.2023437,9.62148437 L10.7962891,11.6675781 L11.8087891,11.6675781 Z M13.9761719,8.68808594 L12.3572266,8.68808594 L12.7105469,6.953125 L14.3347656,6.953125 L13.9761719,8.68808594 Z M18.9476125,11.6675781 L18.9476125,7.09023437 L20.0444875,7.09023437 L20.0444875,6.09355469 L18.9265187,6.09355469 L18.9265187,5.63476562 C18.9265187,5.18125 19.1532765,4.94394531 19.6542531,4.94394531 C19.8071828,4.94394531 19.9601125,4.95976562 20.0708547,4.97558594 L20.0708547,4.05800781 C19.9073781,4.02636719 19.6226125,4 19.364214,4 C18.1513234,4 17.6345265,4.51152344 17.6345265,5.59785156 L17.6345265,6.09355469 L16.8698781,6.09355469 L16.8698781,7.09023437 L17.6345265,7.09023437 L17.6345265,11.6675781 L18.9476125,11.6675781 Z M22.194639,11.6675781 L22.194639,8.41386719 C22.194639,7.628125 22.6428812,7.14824219 23.3864359,7.14824219 C23.6079203,7.14824219 23.8083109,7.17988281 23.9190531,7.22207031 L23.9190531,6.03554687 C23.8241312,6.01445312 23.676475,5.9828125 23.507725,5.9828125 C22.8485453,5.9828125 22.3581156,6.37304688 22.1682718,7.05332031 L22.1419047,7.05332031 L22.1419047,6.07773437 L20.8815531,6.07773437 L20.8815531,11.6675781 L22.194639,11.6675781 Z M26.8285796,11.7783203 C28.4686187,11.7783203 29.5338531,10.6867187 29.5338531,8.87265625 C29.5338531,7.06386719 28.4580718,5.96171875 26.8285796,5.96171875 C25.1990875,5.96171875 24.1233062,7.06914062 24.1233062,8.87265625 C24.1233062,10.6867187 25.1885406,11.7783203 26.8285796,11.7783203 Z M26.8285796,10.7394531 C25.9953765,10.7394531 25.4574859,10.0644531 25.4574859,8.87265625 C25.4574859,7.68613281 26.00065,7.00585937 26.8285796,7.00585937 C27.6617828,7.00585937 28.1996734,7.68613281 28.1996734,8.87265625 C28.1996734,10.0644531 27.6617828,10.7394531 26.8285796,10.7394531 Z M31.6629109,11.6675781 L31.6629109,8.24511719 C31.6629109,7.57011719 32.1058796,7.0796875 32.7386921,7.0796875 C33.3504109,7.0796875 33.7300984,7.46464844 33.7300984,8.08691406 L33.7300984,11.6675781 L35.0062703,11.6675781 L35.0062703,8.21347656 C35.0062703,7.54375 35.4386921,7.0796875 36.0715046,7.0796875 C36.714864,7.0796875 37.0734578,7.46992187 37.0734578,8.15546875 L37.0734578,11.6675781 L38.3865437,11.6675781 L38.3865437,7.83378906 C38.3865437,6.71582031 37.6640828,5.97226562 36.5619343,5.97226562 C35.7550984,5.97226562 35.0906453,6.4046875 34.8216999,7.09550781 L34.7900593,7.09550781 C34.5843953,6.37832031 34.0201374,5.97226562 33.2291218,5.97226562 C32.4697468,5.97226562 31.8791218,6.39941406 31.6365437,7.04804687 L31.6101765,7.04804687 L31.6101765,6.07773437 L30.3498249,6.07773437 L30.3498249,11.6675781 L31.6629109,11.6675781 Z M41.4542734,11.6939453 C41.7337656,11.6939453 41.992164,11.6728516 42.1345468,11.6412109 L42.1345468,10.6392578 C42.0501718,10.6550781 41.8814218,10.665625 41.7601327,10.665625 C41.2960702,10.665625 41.0851327,10.4546875 41.0851327,9.99589844 L41.0851327,7.09023437 L42.1398202,7.09023437 L42.1398202,6.07773437 L41.0851327,6.07773437 L41.0851327,4.76992187 L39.7720468,4.76992187 L39.7720468,6.07773437 L38.9704843,6.07773437 L38.9704843,7.09023437 L39.7720468,7.09023437 L39.7720468,10.1804688 C39.7720468,11.2667969 40.2466562,11.6939453 41.4542734,11.6939453 Z M44.353253,11.6675781 L44.353253,8.45605469 C44.353253,7.63339844 44.8331359,7.08496094 45.6241515,7.08496094 C46.3835265,7.08496094 46.7737609,7.55429687 46.7737609,8.33476562 L46.7737609,11.6675781 L48.0868468,11.6675781 L48.0868468,8.06582031 C48.0868468,6.784375 47.3643859,5.97226562 46.1304015,5.97226562 C45.281378,5.97226562 44.6643859,6.35722656 44.3637999,7.0375 L44.3374327,7.0375 L44.3374327,4.05800781 L43.0401671,4.05800781 L43.0401671,11.6675781 L44.353253,11.6675781 Z M51.5659046,11.7783203 C52.8895374,11.7783203 53.8703968,11.0505859 54.0391468,9.99589844 L52.8104358,9.99589844 C52.668053,10.4599609 52.2039905,10.7658203 51.5922718,10.7658203 C50.7327015,10.7658203 50.184264,10.1646484 50.184264,9.26816406 L50.184264,9.1890625 L54.0918812,9.1890625 L54.0918812,8.76191406 C54.0918812,7.06386719 53.1004749,5.96171875 51.5131702,5.96171875 C49.8994983,5.96171875 48.8764515,7.12714844 48.8764515,8.89375 C48.8764515,10.6761719 49.8889515,11.7783203 51.5659046,11.7783203 Z M52.8051624,8.32421875 L50.1948108,8.32421875 C50.2475452,7.54375 50.7801624,6.97949219 51.5184437,6.97949219 C52.2725452,6.97949219 52.7787952,7.53320312 52.8051624,8.32421875 Z M56.220939,13.5080078 L56.220939,10.7394531 L56.2473061,10.7394531 C56.5531655,11.3669922 57.185978,11.7572266 57.9980874,11.7572266 C59.4008218,11.7572266 60.2973061,10.6550781 60.2973061,8.87265625 C60.2973061,7.08496094 59.3955483,5.9828125 57.9769936,5.9828125 C57.1648843,5.9828125 56.5320718,6.39414062 56.2156655,7.04277344 L56.1892983,7.04277344 L56.1892983,6.07773437 L54.907853,6.07773437 L54.907853,13.5080078 L56.220939,13.5080078 Z M57.5762124,10.6814453 C56.7588296,10.6814453 56.2156655,9.96953125 56.2103921,8.87265625 C56.2156655,7.78632812 56.7588296,7.06386719 57.5762124,7.06386719 C58.4252358,7.06386719 58.9525796,7.77050781 58.9525796,8.87265625 C58.9525796,9.98007812 58.4252358,10.6814453 57.5762124,10.6814453 Z M62.7585905,11.7572266 C63.475778,11.7572266 64.1771452,11.3828125 64.4988249,10.7763672 L64.5251921,10.7763672 L64.5251921,11.6675781 L65.7908171,11.6675781 L65.7908171,7.81796875 C65.7908171,6.69472656 64.8890592,5.96171875 63.5021452,5.96171875 C62.0783171,5.96171875 61.1871061,6.71054687 61.1290983,7.7546875 L62.3472624,7.7546875 C62.4316374,7.290625 62.8271452,6.99003906 63.4494108,6.99003906 C64.0980436,6.99003906 64.4935514,7.32753906 64.4935514,7.91289062 L64.4935514,8.31367187 L63.0169889,8.39804687 C61.6564421,8.48242187 60.8917936,9.07832031 60.8917936,10.0697266 C60.8917936,11.0769531 61.6775358,11.7572266 62.7585905,11.7572266 Z M63.1540983,10.7658203 C62.5845671,10.7658203 62.2048796,10.4757812 62.2048796,10.0169922 C62.2048796,9.57402344 62.5687467,9.28925781 63.2015592,9.24707031 L64.4935514,9.16796875 L64.4935514,9.59511719 C64.4935514,10.2701172 63.897653,10.7658203 63.1540983,10.7658203 Z M68.1677264,11.6675781 L68.1677264,4.05800781 L66.8546405,4.05800781 L66.8546405,11.6675781 L68.1677264,11.6675781 Z M70.571003,11.6675781 L70.571003,8.24511719 C70.571003,7.57011719 71.0139717,7.0796875 71.6467842,7.0796875 C72.258503,7.0796875 72.6381905,7.46464844 72.6381905,8.08691406 L72.6381905,11.6675781 L73.9143623,11.6675781 L73.9143623,8.21347656 C73.9143623,7.54375 74.3467842,7.0796875 74.9795967,7.0796875 C75.6229561,7.0796875 75.9815498,7.46992187 75.9815498,8.15546875 L75.9815498,11.6675781 L77.2946358,11.6675781 L77.2946358,7.83378906 C77.2946358,6.71582031 76.5721748,5.97226562 75.4700264,5.97226562 C74.6631905,5.97226562 73.9987373,6.4046875 73.729792,7.09550781 L73.6981514,7.09550781 C73.4924873,6.37832031 72.9282295,5.97226562 72.1372139,5.97226562 C71.3778389,5.97226562 70.7872139,6.39941406 70.5446358,7.04804687 L70.5182686,7.04804687 L70.5182686,6.07773437 L69.257917,6.07773437 L69.257917,11.6675781 L70.571003,11.6675781 Z M80.7895139,11.7783203 C82.429553,11.7783203 83.4947873,10.6867187 83.4947873,8.87265625 C83.4947873,7.06386719 82.4190061,5.96171875 80.7895139,5.96171875 C79.1600217,5.96171875 78.0842405,7.06914062 78.0842405,8.87265625 C78.0842405,10.6867187 79.1494748,11.7783203 80.7895139,11.7783203 Z M80.7895139,10.7394531 C79.9563108,10.7394531 79.4184201,10.0644531 79.4184201,8.87265625 C79.4184201,7.68613281 79.9615842,7.00585937 80.7895139,7.00585937 C81.622717,7.00585937 82.1606076,7.68613281 82.1606076,8.87265625 C82.1606076,10.0644531 81.622717,10.7394531 80.7895139,10.7394531 Z M85.9877123,11.6675781 L85.9877123,7.09023437 L87.0845873,7.09023437 L87.0845873,6.09355469 L85.9666186,6.09355469 L85.9666186,5.63476562 C85.9666186,5.18125 86.1933764,4.94394531 86.6943529,4.94394531 C86.8472826,4.94394531 87.0002123,4.95976562 87.1109545,4.97558594 L87.1109545,4.05800781 C86.9474779,4.02636719 86.6627123,4 86.4043139,4 C85.1914233,4 84.6746264,4.51152344 84.6746264,5.59785156 L84.6746264,6.09355469 L83.9099779,6.09355469 L83.9099779,7.09023437 L84.6746264,7.09023437 L84.6746264,11.6675781 L85.9877123,11.6675781 Z M88.549192,13.7453125 C89.8253639,13.7453125 90.4423561,13.2759766 90.9169654,11.8890625 L92.9419654,6.07773437 L91.5603248,6.07773437 L90.2419654,10.5496094 L90.2155982,10.5496094 L88.9025123,6.07773437 L87.4681373,6.07773437 L89.4562232,11.6728516 C89.4614967,11.6886719 89.3771217,11.9681641 89.3771217,11.9839844 C89.2347389,12.5007812 88.9552467,12.7064453 88.4120826,12.7064453 C88.3329811,12.7064453 88.1009498,12.7011719 88.0323951,12.6853516 L88.0323951,13.7242187 C88.1009498,13.7400391 88.4700904,13.7453125 88.549192,13.7453125 Z M95.851492,11.7783203 C97.491531,11.7783203 98.5567654,10.6867187 98.5567654,8.87265625 C98.5567654,7.06386719 97.4809842,5.96171875 95.851492,5.96171875 C94.2219998,5.96171875 93.1462185,7.06914062 93.1462185,8.87265625 C93.1462185,10.6867187 94.2114529,11.7783203 95.851492,11.7783203 Z M95.851492,10.7394531 C95.0182889,10.7394531 94.4803982,10.0644531 94.4803982,8.87265625 C94.4803982,7.68613281 95.0235623,7.00585937 95.851492,7.00585937 C96.6846951,7.00585937 97.2225857,7.68613281 97.2225857,8.87265625 C97.2225857,10.0644531 96.6846951,10.7394531 95.851492,10.7394531 Z M101.329183,11.7677734 C102.178206,11.7677734 102.742464,11.3775391 103.037776,10.6972656 L103.064144,10.6972656 L103.064144,11.6675781 L104.329769,11.6675781 L104.329769,6.07773437 L103.016683,6.07773437 L103.016683,9.31035156 C103.016683,10.1224609 102.547347,10.6603516 101.787972,10.6603516 C101.04969,10.6603516 100.659456,10.2279297 100.659456,9.42636719 L100.659456,6.07773437 L99.3463701,6.07773437 L99.3463701,9.69003906 C99.3463701,10.9820312 100.116292,11.7677734 101.329183,11.7677734 Z M106.685584,11.6675781 L106.685584,8.41386719 C106.685584,7.628125 107.133826,7.14824219 107.877381,7.14824219 C108.098865,7.14824219 108.299256,7.17988281 108.409998,7.22207031 L108.409998,6.03554687 C108.315076,6.01445312 108.16742,5.9828125 107.99867,5.9828125 C107.33949,5.9828125 106.849061,6.37304688 106.659217,7.05332031 L106.63285,7.05332031 L106.63285,6.07773437 L105.372498,6.07773437 L105.372498,11.6675781 L106.685584,11.6675781 Z M110.40722,11.6675781 L110.40722,8.45605469 C110.40722,7.63339844 110.887103,7.08496094 111.678118,7.08496094 C112.437493,7.08496094 112.827728,7.55429687 112.827728,8.33476562 L112.827728,11.6675781 L114.140814,11.6675781 L114.140814,8.06582031 C114.140814,6.784375 113.418353,5.97226562 112.184368,5.97226562 C111.335345,5.97226562 110.718353,6.35722656 110.417767,7.0375 L110.3914,7.0375 L110.3914,4.05800781 L109.094134,4.05800781 L109.094134,11.6675781 L110.40722,11.6675781 Z M116.807762,11.7572266 C117.52495,11.7572266 118.226317,11.3828125 118.547997,10.7763672 L118.574364,10.7763672 L118.574364,11.6675781 L119.839989,11.6675781 L119.839989,7.81796875 C119.839989,6.69472656 118.938231,5.96171875 117.551317,5.96171875 C116.127489,5.96171875 115.236278,6.71054687 115.17827,7.7546875 L116.396434,7.7546875 C116.480809,7.290625 116.876317,6.99003906 117.498583,6.99003906 C118.147215,6.99003906 118.542723,7.32753906 118.542723,7.91289062 L118.542723,8.31367187 L117.066161,8.39804687 C115.705614,8.48242187 114.940965,9.07832031 114.940965,10.0697266 C114.940965,11.0769531 115.726708,11.7572266 116.807762,11.7572266 Z M117.20327,10.7658203 C116.633739,10.7658203 116.254051,10.4757812 116.254051,10.0169922 C116.254051,9.57402344 116.617918,9.28925781 117.250731,9.24707031 L118.542723,9.16796875 L118.542723,9.59511719 C118.542723,10.2701172 117.946825,10.7658203 117.20327,10.7658203 Z M122.179984,11.6675781 L122.179984,8.4296875 C122.179984,7.628125 122.659867,7.08496094 123.413968,7.08496094 C124.162797,7.08496094 124.531937,7.52792969 124.531937,8.31894531 L124.531937,11.6675781 L125.845023,11.6675781 L125.845023,8.05527344 C125.845023,6.76328125 125.143656,5.97226562 123.909672,5.97226562 C123.050101,5.97226562 122.454203,6.37304688 122.153617,7.0375 L122.12725,7.0375 L122.12725,6.07773437 L120.866898,6.07773437 L120.866898,11.6675781 L122.179984,11.6675781 Z M128.95494,11.7572266 C129.772323,11.7572266 130.415683,11.340625 130.721542,10.7130859 L130.742636,10.7130859 L130.742636,11.6675781 L132.029354,11.6675781 L132.029354,4.05800781 L130.716268,4.05800781 L130.716268,7.01640625 L130.684628,7.01640625 C130.389315,6.39941406 129.756503,5.9828125 128.95494,5.9828125 C127.546933,5.9828125 126.634628,7.10078125 126.634628,8.86738281 C126.634628,10.6445312 127.546933,11.7572266 128.95494,11.7572266 Z M129.350448,10.6814453 C128.501425,10.6814453 127.979354,9.98535156 127.979354,8.87265625 C127.979354,7.76523437 128.506698,7.06386719 129.350448,7.06386719 C130.178378,7.06386719 130.721542,7.77578125 130.721542,8.87265625 C130.721542,9.98007812 130.178378,10.6814453 129.350448,10.6814453 Z" id="#fromthepalmofyourhand" fill="#FFFFFF" fill-rule="nonzero"></path>
                <path d="M125.520974,181.01605 C131.420441,181.01605 136.825114,177.748061 139.032656,172.846079 L139.146839,172.846079 L139.146839,180.370052 L143.942535,180.370052 L143.942535,153.314148 C143.942535,145.258177 138.271434,140.204195 129.25096,140.204195 C120.230485,140.204195 114.40714,145.220177 113.836224,152.288152 L118.708042,152.288152 C119.583446,147.500169 123.313432,144.650179 129.136776,144.650179 C135.302671,144.650179 138.918473,148.070167 138.918473,153.770147 L138.918473,157.190135 L126.586684,157.950132 C117.452026,158.55813 112.389903,162.662115 112.389903,169.426091 C112.389903,176.342066 117.718454,181.01605 125.520974,181.01605 Z M126.548623,176.684065 C121.182012,176.684065 117.490087,173.720076 117.490087,169.426091 C117.490087,165.056107 120.953645,162.358116 127.195662,161.940118 L138.918473,161.142121 L138.918473,165.512105 C138.918473,171.782083 133.475739,176.684065 126.548623,176.684065 Z M153.166645,180.370052 L153.166645,156.962135 C153.166645,149.628162 157.772035,144.688179 164.623029,144.688179 C171.245656,144.688179 175.051764,148.640165 175.051764,155.55614 L175.051764,180.370052 L180.075826,180.370052 L180.075826,154.758143 C180.075826,145.790175 174.747275,140.204195 166.06935,140.204195 C159.675089,140.204195 155.031638,143.358184 153.014401,148.146167 L152.900218,148.146167 L152.900218,140.850193 L148.142583,140.850193 L148.142583,180.370052 L153.166645,180.370052 Z M196.036746,181.01605 C201.936213,181.01605 207.340886,177.748061 209.548428,172.846079 L209.662611,172.846079 L209.662611,180.370052 L214.458307,180.370052 L214.458307,153.314148 C214.458307,145.258177 208.787207,140.204195 199.766732,140.204195 C190.746257,140.204195 184.922912,145.220177 184.351996,152.288152 L189.223814,152.288152 C190.099219,147.500169 193.829204,144.650179 199.652549,144.650179 C205.818443,144.650179 209.434245,148.070167 209.434245,153.770147 L209.434245,157.190135 L197.102457,157.950132 C187.967799,158.55813 182.905675,162.662115 182.905675,169.426091 C182.905675,176.342066 188.234226,181.01605 196.036746,181.01605 Z M197.064395,176.684065 C191.697784,176.684065 188.00586,173.720076 188.00586,169.426091 C188.00586,165.056107 191.469417,162.358116 197.711434,161.940118 L209.434245,161.142121 L209.434245,165.512105 C209.434245,171.782083 203.991511,176.684065 197.064395,176.684065 Z M234.796252,195 C245.37723,195 252.114041,188.920022 252.114041,179.724054 L252.114041,140.850193 L247.318345,140.850193 L247.318345,149.210163 L247.204162,149.210163 C244.882436,143.814182 239.820313,140.204195 233.502175,140.204195 C223.377929,140.204195 216.67918,148.222167 216.67918,160.496123 C216.67918,172.732079 223.377929,180.750051 233.387992,180.750051 C239.70613,180.750051 244.806314,177.064064 246.937735,171.972082 L247.051918,171.972082 L247.051918,179.914054 C247.051918,186.374031 242.446528,190.668015 235.024618,190.668015 C229.277396,190.668015 225.052616,187.894025 223.75854,184.018039 L218.544172,184.018039 C219.647944,190.250017 226.156387,195 234.796252,195 Z M234.301458,176.304067 C226.841487,176.304067 221.855486,170.072089 221.855486,160.534123 C221.855486,150.920157 226.841487,144.650179 234.301458,144.650179 C241.913673,144.650179 247.051918,151.034157 247.051918,160.496123 C247.051918,169.958089 241.913673,176.304067 234.301458,176.304067 Z M272.566169,181.01605 C281.282155,181.01605 287.714477,176.000068 288.89437,169.160092 L283.908369,169.160092 C282.804598,173.492077 278.655941,176.608065 272.680352,176.608065 C264.801709,176.608065 259.739586,171.060085 259.739586,162.130117 L259.739586,161.826118 L289.389164,161.826118 L289.389164,159.698126 C289.389164,147.918168 282.766537,140.204195 272.26168,140.204195 C261.528457,140.204195 254.56328,148.450166 254.56328,160.724122 C254.56328,173.264077 261.452335,181.01605 272.566169,181.01605 Z M284.212858,157.836132 L259.777647,157.836132 C260.196319,150.04616 265.106198,144.612179 272.185558,144.612179 C279.34104,144.612179 284.098674,150.04616 284.212858,157.836132 Z M306.834467,181.01605 C313.228727,181.01605 318.29085,177.330063 320.536454,172.010082 L320.650637,172.010082 L320.650637,180.370052 L325.446333,180.370052 L325.446333,125.536247 L320.38421,125.536247 L320.38421,148.982164 L320.270026,148.982164 C318.176667,143.852182 313.114544,140.204195 306.720284,140.204195 C296.786343,140.204195 289.897288,148.298166 289.897288,160.610122 C289.897288,172.884079 296.824404,181.01605 306.834467,181.01605 Z M307.709871,176.570066 C300.097656,176.570066 295.073594,170.262088 295.073594,160.610122 C295.073594,150.958157 300.097656,144.650179 307.709871,144.650179 C315.245964,144.650179 320.422271,151.072156 320.422271,160.610122 C320.422271,170.186088 315.245964,176.570066 307.709871,176.570066 Z M334.632382,173.606076 C336.611558,173.606076 338.172062,175.164071 338.172062,177.178063 C338.172062,179.154056 336.611558,180.712051 334.632382,180.712051 C332.653206,180.712051 331.054641,179.154056 331.054641,177.178063 C331.054641,175.164071 332.653206,173.606076 334.632382,173.606076 Z M58.1143405,123 L72.8051436,175.538995 L82.2329851,175.538995 L97.1886863,123 L108.367801,123 L108.367801,179.920821 L103.371065,179.920821 L103.370178,127.9887 L100.962751,127.9887 L86.0082947,180.528239 L69.0129778,180.528239 L54.3212176,127.9887 L51.996736,127.9887 L51.996736,179.920821 L47,179.920821 L47,123 L58.1143405,123 Z M337.805158,125.811016 L337.805158,127.336856 L335.969443,127.336856 L335.969443,132.273916 L334.124945,132.273916 L334.124945,127.336856 L332.280446,127.336856 L332.280446,125.811016 L337.805158,125.811016 Z M340.712438,125.811016 L342.267087,129.616848 L342.30222,129.616848 L343.865652,125.811016 L346,125.811016 L346,132.273916 L344.383868,132.273916 L344.383868,128.555775 L344.339952,128.555775 L342.794086,132.273916 L341.775221,132.273916 L340.229355,128.555775 L340.194222,128.555775 L340.194222,132.273916 L338.569307,132.273916 L338.569307,125.811016 L340.712438,125.811016 Z" id="managed" fill="#000000" fill-rule="nonzero"></path>
            </g>
        </g>
    </g>
</svg>