<?xml version="1.0" encoding="UTF-8"?>
<svg width="591px" height="373px" viewBox="0 0 591 373" version="1.1" xmlns="http://www.w3.org/2000/svg" xmlns:xlink="http://www.w3.org/1999/xlink">
    <!-- Generator: Sketch 64 (93537) - https://sketch.com -->
    <title>Artboard</title>
    <desc>Created with Sketch.</desc>
    <g id="Artboard" stroke="none" stroke-width="1" fill="none" fill-rule="evenodd">
        <path d="M120.708602,187 L120.708602,163.234375 L140.399032,132.041992 L134.457626,132.041992 L118.19493,158.130859 L118.004501,158.130859 L101.741805,132.041992 L95.8003991,132.041992 L115.490829,163.234375 L115.490829,187 L120.708602,187 Z M154.061693,187.647461 C164.840014,187.647461 172.114428,179.763672 172.114428,167.195312 C172.114428,154.588867 164.840014,146.743164 154.061693,146.743164 C143.321459,146.743164 136.008959,154.588867 136.008959,167.195312 C136.008959,179.763672 143.283373,187.647461 154.061693,187.647461 Z M154.061693,183.191406 C146.292162,183.191406 141.15056,177.25 141.15056,167.195312 C141.15056,157.140625 146.292162,151.199219 154.061693,151.199219 C161.831224,151.199219 167.010912,157.140625 167.010912,167.195312 C167.010912,177.25 161.831224,183.191406 154.061693,183.191406 Z M192.365956,187.647461 C198.650136,187.647461 203.410878,184.524414 205.505605,179.649414 L205.619862,179.649414 L205.619862,187 L210.380605,187 L210.380605,147.390625 L205.353261,147.390625 L205.353261,170.889648 C205.353261,178.316406 200.706776,183.15332 193.813222,183.15332 C187.186269,183.15332 183.453847,179.268555 183.453847,172.260742 L183.453847,147.390625 L178.388417,147.390625 L178.388417,173.136719 C178.388417,182.048828 183.758534,187.647461 192.365956,187.647461 Z M223.890922,187 L223.890922,162.320312 C223.890922,155.921875 227.471,151.541992 233.107719,151.541992 C234.821586,151.541992 236.230766,151.808594 236.878227,152.113281 L236.878227,147.162109 C236.268852,147.009766 235.088188,146.743164 233.75518,146.743164 C228.88018,146.743164 225.185844,149.599609 223.738578,154.436523 L223.624321,154.436523 L223.624321,147.390625 L218.863578,147.390625 L218.863578,187 L223.890922,187 Z M273.991636,201.663086 C284.579526,201.663086 291.320737,195.569336 291.320737,186.352539 L291.320737,147.390625 L286.521909,147.390625 L286.521909,155.769531 L286.407651,155.769531 C284.084409,150.361328 279.018979,146.743164 272.696714,146.743164 C262.565854,146.743164 255.862729,154.779297 255.862729,167.081055 C255.862729,179.344727 262.565854,187.380859 272.582456,187.380859 C278.904721,187.380859 284.008237,183.686523 286.14105,178.583008 L286.255307,178.583008 L286.255307,186.542969 C286.255307,193.017578 281.646909,197.321289 274.220151,197.321289 C268.469175,197.321289 264.241636,194.541016 262.946714,190.65625 L257.72894,190.65625 C258.833432,196.902344 265.346128,201.663086 273.991636,201.663086 Z M273.496518,182.924805 C266.031675,182.924805 261.042417,176.678711 261.042417,167.119141 C261.042417,157.483398 266.031675,151.199219 273.496518,151.199219 C281.113706,151.199219 286.255307,157.597656 286.255307,167.081055 C286.255307,176.564453 281.113706,182.924805 273.496518,182.924805 Z M311.53418,187.647461 C317.4375,187.647461 322.845703,184.37207 325.054688,179.458984 L325.168945,179.458984 L325.168945,187 L329.967773,187 L329.967773,159.882812 C329.967773,151.808594 324.292969,146.743164 315.266602,146.743164 C306.240234,146.743164 300.413086,151.770508 299.841797,158.854492 L304.716797,158.854492 C305.592773,154.055664 309.325195,151.199219 315.152344,151.199219 C321.322266,151.199219 324.94043,154.626953 324.94043,160.339844 L324.94043,163.767578 L312.600586,164.529297 C303.459961,165.138672 298.394531,169.251953 298.394531,176.03125 C298.394531,182.962891 303.726562,187.647461 311.53418,187.647461 Z M312.5625,183.305664 C307.192383,183.305664 303.498047,180.334961 303.498047,176.03125 C303.498047,171.651367 306.963867,168.947266 313.209961,168.52832 L324.94043,167.728516 L324.94043,172.108398 C324.94043,178.392578 319.494141,183.305664 312.5625,183.305664 Z M343.249575,187 L343.249575,162.320312 C343.249575,155.921875 346.829654,151.541992 352.466372,151.541992 C354.180239,151.541992 355.589419,151.808594 356.23688,152.113281 L356.23688,147.162109 C355.627505,147.009766 354.446841,146.743164 353.113833,146.743164 C348.238833,146.743164 344.544497,149.599609 343.097232,154.436523 L342.982974,154.436523 L342.982974,147.390625 L338.222232,147.390625 L338.222232,187 L343.249575,187 Z M374.165166,187.647461 C380.563604,187.647461 385.629034,183.953125 387.876104,178.621094 L387.990362,178.621094 L387.990362,187 L392.78919,187 L392.78919,132.041992 L387.72376,132.041992 L387.72376,155.541016 L387.609502,155.541016 C385.514776,150.399414 380.449346,146.743164 374.050909,146.743164 C364.110479,146.743164 357.216924,154.855469 357.216924,167.195312 C357.216924,179.49707 364.148565,187.647461 374.165166,187.647461 Z M375.041143,183.191406 C367.423956,183.191406 362.396612,176.869141 362.396612,167.195312 C362.396612,157.521484 367.423956,151.199219 375.041143,151.199219 C382.582159,151.199219 387.761846,157.635742 387.761846,167.195312 C387.761846,176.792969 382.582159,183.191406 375.041143,183.191406 Z M417.649117,187.647461 C426.370797,187.647461 432.80732,182.620117 433.987984,175.764648 L428.998726,175.764648 C427.894234,180.106445 423.742867,183.229492 417.763375,183.229492 C409.879586,183.229492 404.814156,177.668945 404.814156,168.71875 L404.814156,168.414062 L434.483101,168.414062 L434.483101,166.28125 C434.483101,154.474609 427.856148,146.743164 417.344429,146.743164 C406.604195,146.743164 399.634468,155.007812 399.634468,167.30957 C399.634468,179.87793 406.528023,187.647461 417.649117,187.647461 Z M429.303414,164.415039 L404.852242,164.415039 C405.271187,156.607422 410.184273,151.161133 417.268257,151.161133 C424.428414,151.161133 429.189156,156.607422 429.303414,164.415039 Z M446.051036,187 L446.051036,163.539062 C446.051036,156.188477 450.659434,151.237305 457.514903,151.237305 C464.141856,151.237305 467.95045,155.198242 467.95045,162.129883 L467.95045,187 L472.977794,187 L472.977794,161.330078 C472.977794,152.341797 467.645763,146.743164 458.962169,146.743164 C452.563731,146.743164 447.917247,149.904297 445.898692,154.703125 L445.784434,154.703125 L445.784434,147.390625 L441.023692,147.390625 L441.023692,187 L446.051036,187 Z M486.640455,155.12207 C488.620924,155.12207 490.182447,153.560547 490.182447,151.580078 C490.182447,149.561523 488.620924,148 486.640455,148 C484.659986,148 483.060377,149.561523 483.060377,151.580078 C483.060377,153.560547 484.659986,155.12207 486.640455,155.12207 Z M486.640455,187.342773 C488.620924,187.342773 490.182447,185.78125 490.182447,183.800781 C490.182447,181.782227 488.620924,180.220703 486.640455,180.220703 C484.659986,180.220703 483.060377,181.782227 483.060377,183.800781 C483.060377,185.78125 484.659986,187.342773 486.640455,187.342773 Z" id="Yourgarden:" fill="#000000" fill-rule="nonzero"></path>
        <g id="Group" transform="translate(96.000000, 101.000000)">
            <rect id="Rectangle" fill="#00B078" x="0" y="0" width="142.2" height="18" rx="9"></rect>
            <path d="M9.60878906,11.8 L10.0201172,9.75390625 L11.5441406,9.75390625 L11.1328125,11.8 L12.1505859,11.8 L12.5619141,9.75390625 L13.8802734,9.75390625 L14.0701172,8.75195312 L12.7623047,8.75195312 L13.0892578,7.14882812 L14.3707031,7.14882812 L14.5605469,6.15742187 L13.2896484,6.15742187 L13.6904297,4.19042969 L12.6726562,4.19042969 L12.271875,6.15742187 L10.753125,6.15742187 L11.1433594,4.19042969 L10.1308594,4.19042969 L9.72480469,6.15742187 L8.475,6.15742187 L8.27988281,7.14882812 L9.5296875,7.14882812 L9.20800781,8.75195312 L7.98984375,8.75195312 L7.8,9.75390625 L9.00234375,9.75390625 L8.59628906,11.8 L9.60878906,11.8 Z M11.7761719,8.82050781 L10.1572266,8.82050781 L10.5105469,7.08554687 L12.1347656,7.08554687 L11.7761719,8.82050781 Z M16.7476125,11.8 L16.7476125,7.22265625 L17.8444875,7.22265625 L17.8444875,6.22597656 L16.7265187,6.22597656 L16.7265187,5.7671875 C16.7265187,5.31367187 16.9532765,5.07636719 17.4542531,5.07636719 C17.6071828,5.07636719 17.7601125,5.0921875 17.8708547,5.10800781 L17.8708547,4.19042969 C17.7073781,4.15878906 17.4226125,4.13242187 17.164214,4.13242187 C15.9513234,4.13242187 15.4345265,4.64394531 15.4345265,5.73027344 L15.4345265,6.22597656 L14.6698781,6.22597656 L14.6698781,7.22265625 L15.4345265,7.22265625 L15.4345265,11.8 L16.7476125,11.8 Z M19.994639,11.8 L19.994639,8.54628906 C19.994639,7.76054687 20.4428812,7.28066406 21.1864359,7.28066406 C21.4079203,7.28066406 21.6083109,7.31230469 21.7190531,7.35449219 L21.7190531,6.16796875 C21.6241312,6.146875 21.476475,6.11523437 21.307725,6.11523437 C20.6485453,6.11523437 20.1581156,6.50546875 19.9682718,7.18574219 L19.9419047,7.18574219 L19.9419047,6.21015625 L18.6815531,6.21015625 L18.6815531,11.8 L19.994639,11.8 Z M24.6285796,11.9107422 C26.2686187,11.9107422 27.3338531,10.8191406 27.3338531,9.00507812 C27.3338531,7.19628906 26.2580718,6.09414062 24.6285796,6.09414062 C22.9990875,6.09414062 21.9233062,7.2015625 21.9233062,9.00507812 C21.9233062,10.8191406 22.9885406,11.9107422 24.6285796,11.9107422 Z M24.6285796,10.871875 C23.7953765,10.871875 23.2574859,10.196875 23.2574859,9.00507812 C23.2574859,7.81855469 23.80065,7.13828125 24.6285796,7.13828125 C25.4617828,7.13828125 25.9996734,7.81855469 25.9996734,9.00507812 C25.9996734,10.196875 25.4617828,10.871875 24.6285796,10.871875 Z M29.4629109,11.8 L29.4629109,8.37753906 C29.4629109,7.70253906 29.9058796,7.21210937 30.5386921,7.21210937 C31.1504109,7.21210937 31.5300984,7.59707031 31.5300984,8.21933594 L31.5300984,11.8 L32.8062703,11.8 L32.8062703,8.34589844 C32.8062703,7.67617187 33.2386921,7.21210937 33.8715046,7.21210937 C34.514864,7.21210937 34.8734578,7.60234375 34.8734578,8.28789062 L34.8734578,11.8 L36.1865437,11.8 L36.1865437,7.96621094 C36.1865437,6.84824219 35.4640828,6.1046875 34.3619343,6.1046875 C33.5550984,6.1046875 32.8906453,6.53710937 32.6216999,7.22792969 L32.5900593,7.22792969 C32.3843953,6.51074219 31.8201374,6.1046875 31.0291218,6.1046875 C30.2697468,6.1046875 29.6791218,6.53183594 29.4365437,7.18046875 L29.4101765,7.18046875 L29.4101765,6.21015625 L28.1498249,6.21015625 L28.1498249,11.8 L29.4629109,11.8 Z M39.2542734,11.8263672 C39.5337656,11.8263672 39.792164,11.8052734 39.9345468,11.7736328 L39.9345468,10.7716797 C39.8501718,10.7875 39.6814218,10.7980469 39.5601327,10.7980469 C39.0960702,10.7980469 38.8851327,10.5871094 38.8851327,10.1283203 L38.8851327,7.22265625 L39.9398202,7.22265625 L39.9398202,6.21015625 L38.8851327,6.21015625 L38.8851327,4.90234375 L37.5720468,4.90234375 L37.5720468,6.21015625 L36.7704843,6.21015625 L36.7704843,7.22265625 L37.5720468,7.22265625 L37.5720468,10.3128906 C37.5720468,11.3992187 38.0466562,11.8263672 39.2542734,11.8263672 Z M42.153253,11.8 L42.153253,8.58847656 C42.153253,7.76582031 42.6331359,7.21738281 43.4241515,7.21738281 C44.1835265,7.21738281 44.5737609,7.68671875 44.5737609,8.4671875 L44.5737609,11.8 L45.8868468,11.8 L45.8868468,8.19824219 C45.8868468,6.91679687 45.1643859,6.1046875 43.9304015,6.1046875 C43.081378,6.1046875 42.4643859,6.48964844 42.1637999,7.16992187 L42.1374327,7.16992187 L42.1374327,4.19042969 L40.8401671,4.19042969 L40.8401671,11.8 L42.153253,11.8 Z M49.3659046,11.9107422 C50.6895374,11.9107422 51.6703968,11.1830078 51.8391468,10.1283203 L50.6104358,10.1283203 C50.468053,10.5923828 50.0039905,10.8982422 49.3922718,10.8982422 C48.5327015,10.8982422 47.984264,10.2970703 47.984264,9.40058594 L47.984264,9.32148437 L51.8918812,9.32148437 L51.8918812,8.89433594 C51.8918812,7.19628906 50.9004749,6.09414062 49.3131702,6.09414062 C47.6994983,6.09414062 46.6764515,7.25957031 46.6764515,9.02617187 C46.6764515,10.8085937 47.6889515,11.9107422 49.3659046,11.9107422 Z M50.6051624,8.45664062 L47.9948108,8.45664062 C48.0475452,7.67617187 48.5801624,7.11191406 49.3184437,7.11191406 C50.0725452,7.11191406 50.5787952,7.665625 50.6051624,8.45664062 Z M54.020939,13.6404297 L54.020939,10.871875 L54.0473061,10.871875 C54.3531655,11.4994141 54.985978,11.8896484 55.7980874,11.8896484 C57.2008218,11.8896484 58.0973061,10.7875 58.0973061,9.00507812 C58.0973061,7.21738281 57.1955483,6.11523437 55.7769936,6.11523437 C54.9648843,6.11523437 54.3320718,6.5265625 54.0156655,7.17519531 L53.9892983,7.17519531 L53.9892983,6.21015625 L52.707853,6.21015625 L52.707853,13.6404297 L54.020939,13.6404297 Z M55.3762124,10.8138672 C54.5588296,10.8138672 54.0156655,10.1019531 54.0103921,9.00507812 C54.0156655,7.91875 54.5588296,7.19628906 55.3762124,7.19628906 C56.2252358,7.19628906 56.7525796,7.90292969 56.7525796,9.00507812 C56.7525796,10.1125 56.2252358,10.8138672 55.3762124,10.8138672 Z M60.5585905,11.8896484 C61.275778,11.8896484 61.9771452,11.5152344 62.2988249,10.9087891 L62.3251921,10.9087891 L62.3251921,11.8 L63.5908171,11.8 L63.5908171,7.95039062 C63.5908171,6.82714844 62.6890592,6.09414062 61.3021452,6.09414062 C59.8783171,6.09414062 58.9871061,6.84296875 58.9290983,7.88710937 L60.1472624,7.88710937 C60.2316374,7.42304687 60.6271452,7.12246094 61.2494108,7.12246094 C61.8980436,7.12246094 62.2935514,7.45996094 62.2935514,8.0453125 L62.2935514,8.44609375 L60.8169889,8.53046875 C59.4564421,8.61484375 58.6917936,9.21074219 58.6917936,10.2021484 C58.6917936,11.209375 59.4775358,11.8896484 60.5585905,11.8896484 Z M60.9540983,10.8982422 C60.3845671,10.8982422 60.0048796,10.6082031 60.0048796,10.1494141 C60.0048796,9.70644531 60.3687467,9.42167969 61.0015592,9.37949219 L62.2935514,9.30039062 L62.2935514,9.72753906 C62.2935514,10.4025391 61.697653,10.8982422 60.9540983,10.8982422 Z M65.9677264,11.8 L65.9677264,4.19042969 L64.6546405,4.19042969 L64.6546405,11.8 L65.9677264,11.8 Z M68.371003,11.8 L68.371003,8.37753906 C68.371003,7.70253906 68.8139717,7.21210937 69.4467842,7.21210937 C70.058503,7.21210937 70.4381905,7.59707031 70.4381905,8.21933594 L70.4381905,11.8 L71.7143623,11.8 L71.7143623,8.34589844 C71.7143623,7.67617187 72.1467842,7.21210937 72.7795967,7.21210937 C73.4229561,7.21210937 73.7815498,7.60234375 73.7815498,8.28789062 L73.7815498,11.8 L75.0946358,11.8 L75.0946358,7.96621094 C75.0946358,6.84824219 74.3721748,6.1046875 73.2700264,6.1046875 C72.4631905,6.1046875 71.7987373,6.53710937 71.529792,7.22792969 L71.4981514,7.22792969 C71.2924873,6.51074219 70.7282295,6.1046875 69.9372139,6.1046875 C69.1778389,6.1046875 68.5872139,6.53183594 68.3446358,7.18046875 L68.3182686,7.18046875 L68.3182686,6.21015625 L67.057917,6.21015625 L67.057917,11.8 L68.371003,11.8 Z M78.5895139,11.9107422 C80.229553,11.9107422 81.2947873,10.8191406 81.2947873,9.00507812 C81.2947873,7.19628906 80.2190061,6.09414062 78.5895139,6.09414062 C76.9600217,6.09414062 75.8842405,7.2015625 75.8842405,9.00507812 C75.8842405,10.8191406 76.9494748,11.9107422 78.5895139,11.9107422 Z M78.5895139,10.871875 C77.7563108,10.871875 77.2184201,10.196875 77.2184201,9.00507812 C77.2184201,7.81855469 77.7615842,7.13828125 78.5895139,7.13828125 C79.422717,7.13828125 79.9606076,7.81855469 79.9606076,9.00507812 C79.9606076,10.196875 79.422717,10.871875 78.5895139,10.871875 Z M83.7877123,11.8 L83.7877123,7.22265625 L84.8845873,7.22265625 L84.8845873,6.22597656 L83.7666186,6.22597656 L83.7666186,5.7671875 C83.7666186,5.31367187 83.9933764,5.07636719 84.4943529,5.07636719 C84.6472826,5.07636719 84.8002123,5.0921875 84.9109545,5.10800781 L84.9109545,4.19042969 C84.7474779,4.15878906 84.4627123,4.13242187 84.2043139,4.13242187 C82.9914233,4.13242187 82.4746264,4.64394531 82.4746264,5.73027344 L82.4746264,6.22597656 L81.7099779,6.22597656 L81.7099779,7.22265625 L82.4746264,7.22265625 L82.4746264,11.8 L83.7877123,11.8 Z M86.349192,13.8777344 C87.6253639,13.8777344 88.2423561,13.4083984 88.7169654,12.0214844 L90.7419654,6.21015625 L89.3603248,6.21015625 L88.0419654,10.6820312 L88.0155982,10.6820312 L86.7025123,6.21015625 L85.2681373,6.21015625 L87.2562232,11.8052734 C87.2614967,11.8210937 87.1771217,12.1005859 87.1771217,12.1164062 C87.0347389,12.6332031 86.7552467,12.8388672 86.2120826,12.8388672 C86.1329811,12.8388672 85.9009498,12.8335937 85.8323951,12.8177734 L85.8323951,13.8566406 C85.9009498,13.8724609 86.2700904,13.8777344 86.349192,13.8777344 Z M93.651492,11.9107422 C95.291531,11.9107422 96.3567654,10.8191406 96.3567654,9.00507812 C96.3567654,7.19628906 95.2809842,6.09414062 93.651492,6.09414062 C92.0219998,6.09414062 90.9462185,7.2015625 90.9462185,9.00507812 C90.9462185,10.8191406 92.0114529,11.9107422 93.651492,11.9107422 Z M93.651492,10.871875 C92.8182889,10.871875 92.2803982,10.196875 92.2803982,9.00507812 C92.2803982,7.81855469 92.8235623,7.13828125 93.651492,7.13828125 C94.4846951,7.13828125 95.0225857,7.81855469 95.0225857,9.00507812 C95.0225857,10.196875 94.4846951,10.871875 93.651492,10.871875 Z M99.1291826,11.9001953 C99.978206,11.9001953 100.542464,11.5099609 100.837776,10.8296875 L100.864144,10.8296875 L100.864144,11.8 L102.129769,11.8 L102.129769,6.21015625 L100.816683,6.21015625 L100.816683,9.44277344 C100.816683,10.2548828 100.347347,10.7927734 99.5879717,10.7927734 C98.8496904,10.7927734 98.459456,10.3603516 98.459456,9.55878906 L98.459456,6.21015625 L97.1463701,6.21015625 L97.1463701,9.82246094 C97.1463701,11.1144531 97.916292,11.9001953 99.1291826,11.9001953 Z M104.485584,11.8 L104.485584,8.54628906 C104.485584,7.76054687 104.933826,7.28066406 105.677381,7.28066406 C105.898865,7.28066406 106.099256,7.31230469 106.209998,7.35449219 L106.209998,6.16796875 C106.115076,6.146875 105.96742,6.11523437 105.79867,6.11523437 C105.13949,6.11523437 104.649061,6.50546875 104.459217,7.18574219 L104.43285,7.18574219 L104.43285,6.21015625 L103.172498,6.21015625 L103.172498,11.8 L104.485584,11.8 Z M108.20722,11.8 L108.20722,8.58847656 C108.20722,7.76582031 108.687103,7.21738281 109.478118,7.21738281 C110.237493,7.21738281 110.627728,7.68671875 110.627728,8.4671875 L110.627728,11.8 L111.940814,11.8 L111.940814,8.19824219 C111.940814,6.91679687 111.218353,6.1046875 109.984368,6.1046875 C109.135345,6.1046875 108.518353,6.48964844 108.217767,7.16992187 L108.1914,7.16992187 L108.1914,4.19042969 L106.894134,4.19042969 L106.894134,11.8 L108.20722,11.8 Z M114.607762,11.8896484 C115.32495,11.8896484 116.026317,11.5152344 116.347997,10.9087891 L116.374364,10.9087891 L116.374364,11.8 L117.639989,11.8 L117.639989,7.95039062 C117.639989,6.82714844 116.738231,6.09414062 115.351317,6.09414062 C113.927489,6.09414062 113.036278,6.84296875 112.97827,7.88710937 L114.196434,7.88710937 C114.280809,7.42304687 114.676317,7.12246094 115.298583,7.12246094 C115.947215,7.12246094 116.342723,7.45996094 116.342723,8.0453125 L116.342723,8.44609375 L114.866161,8.53046875 C113.505614,8.61484375 112.740965,9.21074219 112.740965,10.2021484 C112.740965,11.209375 113.526708,11.8896484 114.607762,11.8896484 Z M115.00327,10.8982422 C114.433739,10.8982422 114.054051,10.6082031 114.054051,10.1494141 C114.054051,9.70644531 114.417918,9.42167969 115.050731,9.37949219 L116.342723,9.30039062 L116.342723,9.72753906 C116.342723,10.4025391 115.746825,10.8982422 115.00327,10.8982422 Z M119.979984,11.8 L119.979984,8.56210937 C119.979984,7.76054687 120.459867,7.21738281 121.213968,7.21738281 C121.962797,7.21738281 122.331937,7.66035156 122.331937,8.45136719 L122.331937,11.8 L123.645023,11.8 L123.645023,8.18769531 C123.645023,6.89570312 122.943656,6.1046875 121.709672,6.1046875 C120.850101,6.1046875 120.254203,6.50546875 119.953617,7.16992187 L119.92725,7.16992187 L119.92725,6.21015625 L118.666898,6.21015625 L118.666898,11.8 L119.979984,11.8 Z M126.75494,11.8896484 C127.572323,11.8896484 128.215683,11.4730469 128.521542,10.8455078 L128.542636,10.8455078 L128.542636,11.8 L129.829354,11.8 L129.829354,4.19042969 L128.516268,4.19042969 L128.516268,7.14882812 L128.484628,7.14882812 C128.189315,6.53183594 127.556503,6.11523437 126.75494,6.11523437 C125.346933,6.11523437 124.434628,7.23320312 124.434628,8.99980469 C124.434628,10.7769531 125.346933,11.8896484 126.75494,11.8896484 Z M127.150448,10.8138672 C126.301425,10.8138672 125.779354,10.1177734 125.779354,9.00507812 C125.779354,7.89765625 126.306698,7.19628906 127.150448,7.19628906 C127.978378,7.19628906 128.521542,7.90820312 128.521542,9.00507812 C128.521542,10.1125 127.978378,10.8138672 127.150448,10.8138672 Z" id="#fromthepalmofyourhand" fill="#FFFFFF" fill-rule="nonzero"></path>
        </g>
        <path d="M231.520974,273.01605 C237.420441,273.01605 242.825114,269.748061 245.032656,264.846079 L245.146839,264.846079 L245.146839,272.370052 L249.942535,272.370052 L249.942535,245.314148 C249.942535,237.258177 244.271434,232.204195 235.25096,232.204195 C226.230485,232.204195 220.40714,237.220177 219.836224,244.288152 L224.708042,244.288152 C225.583446,239.500169 229.313432,236.650179 235.136776,236.650179 C241.302671,236.650179 244.918473,240.070167 244.918473,245.770147 L244.918473,249.190135 L232.586684,249.950132 C223.452026,250.55813 218.389903,254.662115 218.389903,261.426091 C218.389903,268.342066 223.718454,273.01605 231.520974,273.01605 Z M232.548623,268.684065 C227.182012,268.684065 223.490087,265.720076 223.490087,261.426091 C223.490087,257.056107 226.953645,254.358116 233.195662,253.940118 L244.918473,253.142121 L244.918473,257.512105 C244.918473,263.782083 239.475739,268.684065 232.548623,268.684065 Z M259.166645,272.370052 L259.166645,248.962135 C259.166645,241.628162 263.772035,236.688179 270.623029,236.688179 C277.245656,236.688179 281.051764,240.640165 281.051764,247.55614 L281.051764,272.370052 L286.075826,272.370052 L286.075826,246.758143 C286.075826,237.790175 280.747275,232.204195 272.06935,232.204195 C265.675089,232.204195 261.031638,235.358184 259.014401,240.146167 L258.900218,240.146167 L258.900218,232.850193 L254.142583,232.850193 L254.142583,272.370052 L259.166645,272.370052 Z M302.036746,273.01605 C307.936213,273.01605 313.340886,269.748061 315.548428,264.846079 L315.662611,264.846079 L315.662611,272.370052 L320.458307,272.370052 L320.458307,245.314148 C320.458307,237.258177 314.787207,232.204195 305.766732,232.204195 C296.746257,232.204195 290.922912,237.220177 290.351996,244.288152 L295.223814,244.288152 C296.099219,239.500169 299.829204,236.650179 305.652549,236.650179 C311.818443,236.650179 315.434245,240.070167 315.434245,245.770147 L315.434245,249.190135 L303.102457,249.950132 C293.967799,250.55813 288.905675,254.662115 288.905675,261.426091 C288.905675,268.342066 294.234226,273.01605 302.036746,273.01605 Z M303.064395,268.684065 C297.697784,268.684065 294.00586,265.720076 294.00586,261.426091 C294.00586,257.056107 297.469417,254.358116 303.711434,253.940118 L315.434245,253.142121 L315.434245,257.512105 C315.434245,263.782083 309.991511,268.684065 303.064395,268.684065 Z M340.796252,287 C351.37723,287 358.114041,280.920022 358.114041,271.724054 L358.114041,232.850193 L353.318345,232.850193 L353.318345,241.210163 L353.204162,241.210163 C350.882436,235.814182 345.820313,232.204195 339.502175,232.204195 C329.377929,232.204195 322.67918,240.222167 322.67918,252.496123 C322.67918,264.732079 329.377929,272.750051 339.387992,272.750051 C345.70613,272.750051 350.806314,269.064064 352.937735,263.972082 L353.051918,263.972082 L353.051918,271.914054 C353.051918,278.374031 348.446528,282.668015 341.024618,282.668015 C335.277396,282.668015 331.052616,279.894025 329.75854,276.018039 L324.544172,276.018039 C325.647944,282.250017 332.156387,287 340.796252,287 Z M340.301458,268.304067 C332.841487,268.304067 327.855486,262.072089 327.855486,252.534123 C327.855486,242.920157 332.841487,236.650179 340.301458,236.650179 C347.913673,236.650179 353.051918,243.034157 353.051918,252.496123 C353.051918,261.958089 347.913673,268.304067 340.301458,268.304067 Z M378.566169,273.01605 C387.282155,273.01605 393.714477,268.000068 394.89437,261.160092 L389.908369,261.160092 C388.804598,265.492077 384.655941,268.608065 378.680352,268.608065 C370.801709,268.608065 365.739586,263.060085 365.739586,254.130117 L365.739586,253.826118 L395.389164,253.826118 L395.389164,251.698126 C395.389164,239.918168 388.766537,232.204195 378.26168,232.204195 C367.528457,232.204195 360.56328,240.450166 360.56328,252.724122 C360.56328,265.264077 367.452335,273.01605 378.566169,273.01605 Z M390.212858,249.836132 L365.777647,249.836132 C366.196319,242.04616 371.106198,236.612179 378.185558,236.612179 C385.34104,236.612179 390.098674,242.04616 390.212858,249.836132 Z M412.834467,273.01605 C419.228727,273.01605 424.29085,269.330063 426.536454,264.010082 L426.650637,264.010082 L426.650637,272.370052 L431.446333,272.370052 L431.446333,217.536247 L426.38421,217.536247 L426.38421,240.982164 L426.270026,240.982164 C424.176667,235.852182 419.114544,232.204195 412.720284,232.204195 C402.786343,232.204195 395.897288,240.298166 395.897288,252.610122 C395.897288,264.884079 402.824404,273.01605 412.834467,273.01605 Z M413.709871,268.570066 C406.097656,268.570066 401.073594,262.262088 401.073594,252.610122 C401.073594,242.958157 406.097656,236.650179 413.709871,236.650179 C421.245964,236.650179 426.422271,243.072156 426.422271,252.610122 C426.422271,262.186088 421.245964,268.570066 413.709871,268.570066 Z M440.632382,265.606076 C442.611558,265.606076 444.172062,267.164071 444.172062,269.178063 C444.172062,271.154056 442.611558,272.712051 440.632382,272.712051 C438.653206,272.712051 437.054641,271.154056 437.054641,269.178063 C437.054641,267.164071 438.653206,265.606076 440.632382,265.606076 Z M164.11434,215 L178.805144,267.538995 L188.232985,267.538995 L203.188686,215 L214.367801,215 L214.367801,271.920821 L209.371065,271.920821 L209.370178,219.9887 L206.962751,219.9887 L192.008295,272.528239 L175.012978,272.528239 L160.321218,219.9887 L157.996736,219.9887 L157.996736,271.920821 L153,271.920821 L153,215 L164.11434,215 Z M443.805158,217.811016 L443.805158,219.336856 L441.969443,219.336856 L441.969443,224.273916 L440.124945,224.273916 L440.124945,219.336856 L438.280446,219.336856 L438.280446,217.811016 L443.805158,217.811016 Z M446.712438,217.811016 L448.267087,221.616848 L448.30222,221.616848 L449.865652,217.811016 L452,217.811016 L452,224.273916 L450.383868,224.273916 L450.383868,220.555775 L450.339952,220.555775 L448.794086,224.273916 L447.775221,224.273916 L446.229355,220.555775 L446.194222,220.555775 L446.194222,224.273916 L444.569307,224.273916 L444.569307,217.811016 L446.712438,217.811016 Z" id="managed" fill="#000000" fill-rule="nonzero"></path>
        <path d="M591,0 L591,373 L0,373 L0,0 L591,0 Z" id="Path-4" stroke-opacity="0" stroke="#FFFFFF"></path>
    </g>
</svg>